<svg xmlns="http://www.w3.org/2000/svg" width="1200" height="1200" viewBox="0 0 1200 1200" role="img" aria-label="HUME Kapoor Car Stabiliser coming soon product visual">
  <defs>
    <radialGradient id="kapoorGlow" cx="70%" cy="20%" r="72%">
      <stop offset="0" stop-color="#fff8e8"/>
      <stop offset="0.42" stop-color="#806c4e"/>
      <stop offset="1" stop-color="#070706"/>
    </radialGradient>
    <linearGradient id="blackGlass" x1="0" x2="1" y1="0" y2="1">
      <stop offset="0" stop-color="#2d2a24"/>
      <stop offset="0.52" stop-color="#11100d"/>
      <stop offset="1" stop-color="#d2b98d"/>
    </linearGradient>
    <filter id="shadow" x="-30%" y="-30%" width="160%" height="160%">
      <feDropShadow dx="0" dy="38" stdDeviation="30" flood-color="#000" flood-opacity="0.5"/>
    </filter>
  </defs>
  <rect width="1200" height="1200" fill="url(#kapoorGlow)"/>
  <circle cx="270" cy="290" r="230" fill="#fff2d8" opacity="0.12"/>
  <circle cx="900" cy="880" r="290" fill="#d0ad70" opacity="0.18"/>
  <g filter="url(#shadow)">
    <rect x="408" y="238" width="384" height="664" rx="72" fill="url(#blackGlass)" stroke="#dfc99c" stroke-opacity="0.45" stroke-width="8"/>
    <rect x="480" y="160" width="240" height="116" rx="30" fill="#11100d" stroke="#dfc99c" stroke-opacity="0.25" stroke-width="5"/>
    <rect x="462" y="442" width="276" height="286" rx="20" fill="#f5ead8" opacity="0.92"/>
    <text x="600" y="515" text-anchor="middle" font-family="Georgia, serif" font-size="54" fill="#191511">hf</text>
    <text x="600" y="577" text-anchor="middle" font-family="Arial, sans-serif" font-size="24" font-weight="700" letter-spacing="6" fill="#76613f">HUME</text>
    <text x="600" y="626" text-anchor="middle" font-family="Arial, sans-serif" font-size="29" font-weight="700" fill="#171411">KAPOOR</text>
    <text x="600" y="670" text-anchor="middle" font-family="Arial, sans-serif" font-size="18" letter-spacing="4" fill="#76613f">CAR STABILISER</text>
  </g>
  <g fill="none" stroke="#f5ead8" stroke-width="3" opacity="0.28">
    <path d="M252 730c110-95 212-118 306-70"/>
    <path d="M695 326c95-46 188-43 280 8"/>
    <path d="M330 390c86-36 148-30 186 18"/>
  </g>
</svg>
